<svg xmlns="http://www.w3.org/2000/svg" width="348" height="348" viewBox="0 0 348 348">
<g>
<path d="M 347.00 157.17 C347.00,159.28 347.23,161.00 347.50,161.00 C347.77,161.00 348.00,124.78 348.00,80.50 L 348.00 348.00 L 0.00 348.00 L 0.00 0.00 L 348.00 0.00 L 264.75 0.14 C218.80,0.22 185.53,0.62 190.50,1.04 C266.65,7.43 331.34,66.61 345.03,142.42 C346.11,148.43 347.00,155.07 347.00,157.17 ZM 169.97 238.55 L 175.44 240.79 L 186.47 235.27 C200.60,228.20 211.39,221.60 222.58,213.20 L 231.50 206.50 L 232.66 197.50 C234.23,185.42 234.20,162.72 232.61,150.77 C232.06,146.69 231.95,144.33 231.05,142.32 C229.43,138.71 225.26,136.24 211.47,126.94 C203.49,121.55 179.39,109.22 175.25,108.41 C171.81,107.73 161.04,112.53 146.78,121.10 C134.80,128.30 118.47,140.24 117.15,142.75 C116.64,143.71 115.67,151.48 114.99,160.01 C114.04,172.04 114.02,178.34 114.92,188.01 C116.77,207.82 116.16,206.35 125.19,212.81 C140.49,223.77 156.84,233.17 169.97,238.55 ZM 0.17 82.75 C0.27,126.75 0.49,161.12 0.68,161.12 C0.68,161.12 0.69,161.08 0.70,161.00 C3.40,125.92 16.72,92.31 38.72,65.00 C45.77,56.26 59.86,42.49 68.64,35.76 C93.50,16.71 125.65,4.13 157.30,1.07 C162.06,0.61 130.73,0.22 82.75,0.14 L 0.00 0.00 ZM 0.17 265.25 L 0.00 348.00 L 81.25 347.84 C124.76,347.75 159.08,347.53 159.08,347.33 C159.08,347.32 159.05,347.32 159.00,347.31 C117.53,342.97 82.81,327.05 53.63,299.02 C22.55,269.15 4.00,229.91 0.70,187.00 C0.69,186.92 0.68,186.88 0.68,186.88 C0.49,186.88 0.27,221.25 0.17,265.25 ZM 190.00 347.31 C189.95,347.32 189.92,347.32 189.92,347.33 C189.92,347.53 224.01,347.75 267.25,347.84 L 348.00 348.00 L 347.85 267.25 C347.77,223.85 347.54,189.44 347.34,189.44 C347.34,189.44 347.33,189.46 347.33,189.50 C344.63,211.31 340.51,227.22 333.28,243.74 C307.93,301.61 253.99,340.61 190.00,347.31 ZM 75.87 164.34 C81.00,170.90 81.56,170.83 88.22,162.74 C90.58,159.86 95.44,154.80 99.01,151.50 C112.65,138.89 112.62,138.93 113.38,132.99 C114.15,127.04 119.19,106.22 121.60,99.09 C123.64,93.04 123.00,92.00 117.28,91.98 C114.65,91.97 109.35,91.28 105.50,90.45 C94.72,88.11 70.24,86.73 52.32,87.44 C36.77,88.06 32.19,88.48 31.33,89.34 C30.59,90.08 35.09,100.37 41.66,113.00 C49.69,128.42 61.01,146.53 67.00,153.50 C69.47,156.39 73.47,161.27 75.87,164.34 ZM 38.25 262.26 C49.92,263.08 71.45,262.94 83.60,261.97 C97.63,260.85 122.05,257.25 123.24,256.12 C123.65,255.74 123.15,253.14 122.13,250.36 C120.29,245.31 115.02,224.43 112.96,214.00 C111.98,209.06 111.31,208.04 106.36,204.00 C103.33,201.52 96.36,194.89 90.87,189.25 C85.37,183.61 80.69,179.00 80.47,179.00 C79.75,179.00 66.51,197.19 60.82,206.00 C53.86,216.77 49.51,224.28 42.86,237.00 C42.02,238.61 38.51,246.47 35.10,254.38 C32.06,261.43 32.22,261.84 38.25,262.26 ZM 261.00 260.01 C273.22,260.90 312.65,260.45 315.42,259.39 C317.50,258.59 317.14,257.44 310.43,243.50 C304.75,231.71 299.14,221.41 295.96,216.95 C294.88,215.43 294.00,213.88 294.00,213.49 C294.00,212.36 279.11,190.98 274.15,185.00 C271.64,181.98 269.27,179.11 268.88,178.63 C267.92,177.46 236.00,209.20 236.00,211.32 C236.00,212.23 235.53,214.89 234.95,217.24 C234.37,219.58 232.83,226.00 231.52,231.50 C230.21,237.00 228.34,244.31 227.36,247.74 C226.23,251.72 225.93,254.32 226.54,254.92 C227.82,256.18 246.75,258.98 261.00,260.01 ZM 251.25 153.16 C259.64,161.74 266.95,168.67 267.50,168.56 C270.02,168.06 287.11,143.32 296.37,126.77 C305.29,110.83 315.00,90.35 315.00,87.47 C315.00,84.04 266.72,84.75 241.50,88.55 C228.64,90.48 224.70,91.83 225.60,94.00 C225.95,94.82 226.64,97.30 227.13,99.50 C227.63,101.70 228.42,104.40 228.88,105.50 C229.34,106.60 230.72,112.00 231.94,117.50 C233.15,123.00 234.57,129.13 235.07,131.12 C235.58,133.10 236.00,135.37 236.00,136.15 C236.00,136.92 242.86,144.58 251.25,153.16 ZM 164.50 98.79 C168.90,100.42 172.98,101.81 173.56,101.88 C174.14,101.95 177.52,100.84 181.06,99.42 C187.52,96.83 193.06,95.02 207.00,90.96 C217.53,87.88 217.70,87.63 214.51,79.89 C206.89,61.40 196.82,41.53 187.96,27.50 C181.52,17.30 174.95,8.00 174.17,8.00 C172.59,8.00 160.32,26.02 153.06,39.00 C146.27,51.14 136.17,72.54 134.06,79.27 C133.83,80.00 133.61,80.68 133.41,81.31 C132.24,84.94 131.60,86.91 132.26,88.23 C133.16,90.03 136.44,90.63 144.00,92.59 C150.88,94.37 160.10,97.17 164.50,98.79 ZM 167.00 330.99 C170.57,335.93 173.65,339.97 173.84,339.98 C176.50,340.12 197.26,306.10 206.77,286.00 C210.51,278.10 218.00,259.91 218.00,258.73 C218.00,258.44 216.31,257.98 214.25,257.69 C207.37,256.73 201.60,255.16 188.36,250.61 L 175.23 246.09 L 169.86 248.16 C162.99,250.81 149.65,255.22 139.75,258.12 C131.51,260.53 130.87,261.31 133.34,266.04 C134.07,267.44 134.94,269.93 135.27,271.58 C136.04,275.46 147.59,299.76 153.14,309.18 C155.51,313.21 158.14,317.74 158.98,319.26 C159.81,320.77 163.43,326.05 167.00,330.99 ZM 186.26 204.47 C178.82,207.49 171.74,207.71 164.30,205.14 C149.82,200.13 141.74,189.02 141.72,174.05 C141.71,168.13 142.25,165.32 144.20,161.00 C147.03,154.75 153.54,147.78 159.29,144.85 C167.82,140.50 181.37,140.56 189.95,145.00 C195.07,147.65 201.53,154.72 204.12,160.50 C207.45,167.96 207.31,180.50 203.81,188.00 C200.40,195.29 193.96,201.34 186.26,204.47 ZM 127.78 250.75 C128.73,253.08 129.95,254.99 130.50,255.00 C131.05,255.00 136.23,253.61 142.00,251.92 C147.78,250.22 153.85,248.47 155.50,248.03 C157.15,247.59 160.52,246.35 162.99,245.28 L 167.47 243.32 L 155.11 237.02 C148.32,233.55 137.13,226.94 130.25,222.31 C118.55,214.45 117.79,214.09 118.43,216.71 C118.80,218.24 119.50,221.30 119.98,223.50 C120.46,225.70 121.29,229.07 121.84,231.00 C122.38,232.93 123.55,237.20 124.44,240.50 C125.33,243.80 126.83,248.41 127.78,250.75 ZM 224.50 129.66 C228.36,132.64 230.18,132.68 229.55,129.75 C226.83,117.20 223.21,103.61 220.74,96.75 C219.57,93.48 217.65,93.29 209.30,95.61 C206.11,96.50 202.26,97.45 200.74,97.73 C199.22,98.00 197.73,98.63 197.43,99.12 C197.13,99.60 196.03,100.00 194.98,100.00 C192.54,100.00 182.00,103.92 182.00,104.83 C182.00,105.21 186.07,107.42 191.03,109.74 C199.73,113.82 218.28,124.85 224.50,129.66 ZM 118.00 131.56 C118.00,132.90 118.29,134.00 118.64,134.00 C119.00,134.00 122.04,131.93 125.39,129.40 C134.51,122.52 146.61,115.05 156.82,110.00 C161.82,107.53 165.93,105.25 165.96,104.95 C166.04,103.88 129.32,93.34 128.49,94.19 C127.66,95.03 120.00,123.18 120.00,125.36 C120.00,126.75 119.55,128.16 119.00,128.50 C118.45,128.84 118.00,130.22 118.00,131.56 ZM 205.50 250.62 C212.10,252.40 217.83,253.89 218.23,253.93 C219.90,254.09 221.98,248.70 225.33,235.50 C229.81,217.90 230.37,215.00 229.30,215.00 C228.82,215.00 224.46,217.93 219.61,221.51 C209.95,228.62 192.67,238.68 187.66,240.11 C184.18,241.10 181.29,242.70 182.03,243.23 C183.24,244.11 194.63,247.70 205.50,250.62 ZM 238.35 148.14 L 238.35 199.84 L 243.94 194.97 C250.06,189.65 263.50,174.58 263.50,173.04 C263.50,171.46 246.83,154.00 242.42,150.96 ZM 97.05 188.26 C103.68,194.84 109.37,199.97 109.68,199.65 C110.62,198.71 110.08,150.53 109.13,150.21 C108.65,150.05 106.84,151.10 105.12,152.55 C100.44,156.49 85.00,173.82 85.00,175.14 C85.00,175.77 90.42,181.67 97.05,188.26 Z" fill="rgb(4,0,0)"/>
<path d="M 38.25 262.26 C32.22,261.84 32.06,261.43 35.10,254.38 C38.51,246.47 42.02,238.61 42.86,237.00 C49.51,224.28 53.86,216.77 60.82,206.00 C66.51,197.19 79.75,179.00 80.47,179.00 C80.69,179.00 85.37,183.61 90.87,189.25 C95.76,194.28 101.84,200.10 105.24,203.05 C104.37,202.43 103.68,202.03 103.37,202.03 C102.75,202.01 97.35,197.05 91.37,191.01 L 80.50 180.02 L 78.67 182.26 C75.09,186.66 67.00,199.52 67.00,200.82 C67.00,201.54 65.78,203.74 64.28,205.70 C62.79,207.65 61.41,210.41 61.22,211.81 C61.04,213.22 60.12,214.99 59.19,215.75 C57.95,216.76 57.83,217.26 58.75,217.65 C59.44,217.93 60.00,219.45 60.00,221.01 C60.00,223.72 62.18,227.00 63.98,227.00 C64.44,227.00 66.21,230.49 67.91,234.75 C69.61,239.01 72.43,245.29 74.17,248.70 C77.72,255.63 79.27,256.61 89.93,258.65 C97.81,260.15 108.78,259.65 115.10,257.48 C119.98,255.82 122.68,252.48 121.71,249.32 C119.38,241.73 116.25,229.46 114.47,221.06 C116.93,231.94 120.64,246.29 122.13,250.36 C123.15,253.14 123.65,255.74 123.24,256.12 C122.05,257.25 97.63,260.85 83.60,261.97 C71.45,262.94 49.92,263.08 38.25,262.26 ZM 251.25 153.16 C247.61,149.43 244.25,145.88 241.62,142.99 C243.20,144.51 245.02,146.20 246.94,147.92 C252.68,153.05 259.58,159.67 262.29,162.63 L 267.21 168.01 L 270.10 164.37 C276.09,156.83 284.00,144.29 284.00,142.32 C284.00,141.19 285.35,138.58 287.00,136.50 C288.65,134.42 290.00,132.37 290.00,131.93 C290.00,131.50 290.71,130.44 291.57,129.57 C293.00,128.14 292.85,128.00 289.96,128.00 C286.80,128.00 286.78,127.98 288.38,125.54 C290.46,122.37 290.42,122.00 288.00,122.00 C286.90,122.00 286.00,121.55 286.00,121.00 C286.00,120.45 285.21,119.20 284.25,118.23 C283.29,117.25 281.38,113.99 280.02,110.98 C278.65,107.97 276.26,103.87 274.70,101.88 C271.78,98.14 263.22,92.00 260.92,92.00 C260.21,92.00 258.70,91.14 257.56,90.08 C255.58,88.23 255.05,88.21 243.50,89.64 C233.08,90.92 228.45,91.48 226.51,92.02 C228.39,90.85 233.00,89.83 241.50,88.55 C266.72,84.75 315.00,84.04 315.00,87.47 C315.00,90.35 305.29,110.83 296.37,126.77 C287.11,143.32 270.02,168.06 267.50,168.56 C266.95,168.67 259.64,161.74 251.25,153.16 ZM 167.00 330.99 C163.43,326.05 159.81,320.77 158.98,319.26 C158.14,317.74 155.51,313.21 153.14,309.18 C147.59,299.76 136.04,275.46 135.27,271.58 C135.23,271.42 135.20,271.26 135.16,271.09 C135.44,271.81 136.06,272.78 136.78,273.56 C137.76,274.63 139.42,277.75 140.46,280.50 C141.49,283.25 143.62,286.69 145.17,288.15 C146.78,289.66 148.00,291.86 148.00,293.25 C148.00,294.80 148.83,296.09 150.25,296.78 C153.57,298.38 154.00,298.24 154.00,295.56 C154.00,291.69 155.99,291.46 159.26,294.96 C162.05,297.94 162.61,298.14 166.71,297.52 C172.33,296.68 188.63,296.65 189.98,297.49 C190.57,297.85 191.00,297.04 191.00,295.56 C191.00,293.62 191.51,293.00 193.11,293.00 C194.88,293.00 195.11,293.42 194.57,295.58 C194.05,297.65 194.25,298.10 195.60,297.83 C196.53,297.65 197.67,296.71 198.14,295.75 C198.61,294.79 199.45,293.21 200.00,292.25 C200.55,291.29 201.40,289.60 201.89,288.50 C202.38,287.40 204.18,285.04 205.89,283.26 C207.60,281.48 209.00,279.30 209.00,278.41 C209.00,277.53 209.61,275.61 210.35,274.15 C212.58,269.76 214.89,264.65 215.88,261.93 C216.78,259.47 216.59,259.28 211.66,257.81 C210.69,257.52 208.95,256.98 206.74,256.28 C209.37,256.91 211.74,257.34 214.25,257.69 C216.31,257.98 218.00,258.44 218.00,258.73 C218.00,259.91 210.51,278.10 206.77,286.00 C197.26,306.10 176.50,340.12 173.84,339.98 C173.65,339.97 170.57,335.93 167.00,330.99 ZM 261.00 260.01 C247.94,259.06 230.95,256.64 227.22,255.27 C229.45,255.83 237.56,256.45 248.10,256.82 C259.32,257.22 269.10,257.37 269.84,257.14 C270.65,256.88 271.00,255.78 270.73,254.36 C270.45,252.89 271.18,250.80 272.69,248.76 C274.02,246.96 275.92,243.67 276.92,241.43 C277.92,239.19 280.19,235.99 281.97,234.32 C284.47,231.99 285.33,230.22 285.74,226.58 C286.13,223.14 286.89,221.46 288.56,220.37 C290.79,218.91 290.81,218.78 289.28,214.19 C288.42,211.61 287.37,209.05 286.95,208.50 C286.52,207.95 285.31,205.25 284.26,202.50 C283.20,199.75 279.56,193.83 276.17,189.35 C272.78,184.87 270.00,180.73 270.00,180.16 C270.00,180.10 269.99,180.03 269.99,179.97 C271.00,181.19 272.55,183.06 274.15,185.00 C279.11,190.98 294.00,212.36 294.00,213.49 C294.00,213.88 294.88,215.43 295.96,216.95 C299.14,221.41 304.75,231.71 310.43,243.50 C317.14,257.44 317.50,258.59 315.42,259.39 C312.65,260.45 273.22,260.90 261.00,260.01 ZM 72.50 160.12 C70.57,157.75 68.50,155.26 67.00,153.50 C61.01,146.53 49.69,128.42 41.66,113.00 C35.09,100.37 30.59,90.08 31.33,89.34 C32.19,88.48 36.77,88.06 52.32,87.44 C70.24,86.73 94.72,88.11 105.50,90.45 C109.35,91.28 114.65,91.97 117.28,91.98 C123.00,92.00 123.64,93.04 121.60,99.09 C121.41,99.66 121.20,100.32 120.97,101.06 C121.31,99.75 121.54,98.84 121.63,98.50 C122.55,94.74 119.96,93.06 110.78,91.46 C103.27,90.15 101.25,90.13 96.14,91.31 C90.74,92.56 89.88,92.52 86.45,90.85 L 82.68 89.02 L 79.09 92.72 C77.12,94.75 75.64,97.03 75.81,97.77 C75.98,98.52 73.17,102.50 69.56,106.62 C64.57,112.32 62.98,114.87 62.90,117.30 C62.73,122.72 61.53,125.45 58.71,126.80 C55.62,128.29 55.46,128.87 57.39,131.52 C58.62,133.20 59.01,133.26 60.64,132.01 C62.20,130.82 62.30,130.82 61.25,132.00 C60.56,132.77 60.00,134.16 60.00,135.08 C60.00,137.16 65.03,148.38 66.17,148.83 C66.63,149.02 67.00,149.92 67.00,150.84 C67.00,152.08 69.00,155.42 72.50,160.12 ZM 132.00 86.87 C132.02,85.61 132.58,83.87 133.41,81.31 C133.61,80.68 133.83,80.00 134.06,79.27 C136.17,72.54 146.27,51.14 153.06,39.00 C160.32,26.02 172.59,8.00 174.17,8.00 C174.95,8.00 181.52,17.30 187.96,27.50 C196.82,41.53 206.89,61.40 214.51,79.89 C215.18,81.51 215.70,82.81 216.01,83.86 C215.79,83.28 215.50,82.62 215.14,81.87 C211.75,74.66 206.35,65.05 204.62,63.14 C203.73,62.15 203.00,60.34 203.00,59.11 C203.00,57.88 202.55,57.16 202.00,57.50 C201.45,57.84 201.00,57.20 201.00,56.08 C201.00,52.68 196.37,50.47 189.87,50.75 C185.84,50.93 183.71,50.56 182.65,49.50 C180.69,47.55 178.58,47.59 176.90,49.62 C175.81,50.93 174.34,51.13 169.30,50.66 C164.18,50.19 162.89,50.37 162.15,51.69 C160.84,54.05 158.20,52.60 157.82,49.32 C157.63,47.61 156.82,46.39 155.75,46.19 C154.25,45.90 154.00,46.66 154.00,51.43 C154.00,54.49 153.73,57.00 153.41,57.00 C153.09,57.00 152.00,55.99 151.00,54.76 L 149.19 52.51 L 147.34 55.88 C146.33,57.74 144.49,60.50 143.25,62.02 C142.01,63.54 141.00,65.71 141.00,66.84 C141.00,67.96 140.59,69.14 140.08,69.45 C137.49,71.05 132.89,81.77 132.00,86.87 ZM 264.72 91.39 C266.05,92.72 270.48,91.53 270.81,89.75 C271.06,88.47 270.49,88.00 268.70,88.00 C266.11,88.00 263.53,90.20 264.72,91.39 ZM 118.00 131.56 C118.00,130.22 118.45,128.84 119.00,128.50 C119.19,128.38 119.36,128.14 119.52,127.82 C119.43,129.13 119.51,130.18 119.74,130.41 C120.79,131.45 122.72,131.04 124.00,129.50 C124.68,128.68 125.62,128.00 126.07,128.00 C126.53,128.00 128.83,126.71 131.20,125.13 C138.07,120.56 142.20,117.95 147.46,115.00 C139.76,119.39 131.83,124.54 125.39,129.40 C122.04,131.93 119.00,134.00 118.64,134.00 C118.29,134.00 118.00,132.90 118.00,131.56 ZM 130.25 222.31 C136.61,226.59 146.66,232.57 153.52,236.19 C146.80,232.65 137.44,227.14 131.81,223.37 C125.68,219.28 120.31,216.29 119.86,216.74 C119.05,217.55 120.01,224.48 121.84,231.00 C122.38,232.93 123.55,237.20 124.44,240.50 C123.55,237.20 122.38,232.93 121.84,231.00 C121.29,229.07 120.46,225.70 119.98,223.50 C119.50,221.30 118.80,218.24 118.43,216.71 C117.79,214.09 118.55,214.45 130.25,222.31 ZM 328.68 94.55 C314.45,67.07 293.04,43.80 267.23,27.28 C293.18,43.63 314.38,66.62 328.68,94.55 ZM 193.70 247.25 C187.56,245.40 182.79,243.78 182.03,243.23 C181.29,242.70 184.18,241.10 187.66,240.11 C189.50,239.59 192.97,237.91 197.11,235.64 C193.67,237.56 190.43,239.25 187.75,240.49 C185.69,241.44 184.00,242.59 184.00,243.03 C184.00,243.83 187.33,245.27 193.70,247.25 ZM 154.36 111.24 C159.42,108.52 163.50,105.76 163.50,105.04 C163.50,104.49 162.50,103.67 161.08,102.97 C164.06,103.96 165.98,104.70 165.96,104.95 C165.93,105.25 161.82,107.53 156.82,110.00 C156.01,110.40 155.19,110.81 154.36,111.24 ZM 0.59 158.84 L 2.04 149.00 C5.61,124.78 13.73,102.56 26.33,82.50 C11.71,106.12 2.85,133.09 0.70,161.00 C0.69,161.08 0.68,161.12 0.68,161.12 C0.65,161.12 0.62,160.33 0.59,158.84 ZM 87.59 23.26 C106.20,12.54 126.80,5.43 149.15,2.05 L 157.00 0.86 C157.91,0.93 158.04,1.00 157.30,1.07 C133.21,3.40 108.83,11.24 87.59,23.26 ZM 147.63 98.87 C138.83,96.48 128.74,93.95 128.49,94.19 C128.91,93.76 138.34,96.20 147.63,98.87 ZM 8.10 225.71 C16.72,253.36 32.19,278.42 53.63,299.02 C32.13,278.35 16.72,253.47 8.10,225.71 ZM 231.59 0.27 C241.45,0.21 252.66,0.16 264.75,0.14 L 348.00 0.00 L 266.75 0.16 C254.03,0.19 242.10,0.22 231.59,0.27 ZM 121.11 120.08 C123.27,111.29 127.86,94.83 128.49,94.19 C128.01,94.68 123.49,110.78 121.11,120.08 ZM 0.59 189.16 C0.62,187.67 0.65,186.88 0.68,186.88 C0.68,186.88 0.69,186.92 0.70,187.00 C0.97,190.57 1.35,194.11 1.84,197.62 ZM 199.85 2.09 C196.75,1.66 193.64,1.30 190.50,1.04 C189.77,0.98 189.87,0.92 190.71,0.86 C193.78,1.20 196.83,1.61 199.85,2.09 ZM 112.87 213.55 C111.89,209.63 111.04,208.24 108.97,206.22 C111.50,208.55 112.14,209.99 112.87,213.55 ZM 47.45 55.25 C47.95,54.71 48.47,54.17 48.98,53.63 C52.26,50.22 55.64,46.96 59.12,43.86 C55.22,47.43 51.14,51.41 47.45,55.25 ZM 347.00 157.17 C347.00,155.33 346.32,150.00 345.42,144.67 C346.39,149.94 347.00,154.53 347.00,157.17 ZM 135.00 270.48 C134.59,268.96 133.92,267.16 133.34,266.04 C131.96,263.41 131.55,262.00 132.88,260.85 C131.54,262.03 132.02,263.51 133.51,266.36 C134.33,267.94 135.00,269.77 135.00,270.43 C135.00,270.44 135.00,270.46 135.00,270.48 ZM 234.34 128.09 C233.73,125.48 232.90,121.83 232.12,118.34 C232.88,121.56 233.66,124.98 234.34,128.09 ZM 267.53 179.34 C264.60,181.60 257.87,187.96 251.38,194.44 C257.93,187.90 264.71,181.48 267.53,179.34 ZM 214.75 88.21 C213.33,89.08 210.86,89.83 207.00,90.96 C210.83,89.84 213.30,89.05 214.75,88.21 ZM 82.34 168.76 C83.74,168.02 85.47,166.07 88.22,162.74 C85.47,166.08 83.76,168.05 82.34,168.76 ZM 177.67 246.93 L 175.16 246.12 L 175.23 246.09 ZM 236.10 136.40 C236.03,136.29 236.00,136.20 236.00,136.15 C236.00,136.06 235.99,135.95 235.98,135.82 C236.02,136.02 236.06,136.22 236.10,136.40 ZM 226.53 254.91 C226.40,254.78 226.31,254.54 226.26,254.22 C226.32,254.51 226.41,254.74 226.53,254.91 ZM 225.55 93.87 C225.58,93.92 225.60,93.99 225.63,94.05 C225.62,94.04 225.61,94.02 225.60,94.00 C225.59,93.95 225.57,93.91 225.55,93.87 Z" fill="rgb(146,8,6)"/>
<path d="M 169.97 238.55 C156.84,233.17 140.49,223.77 125.19,212.81 C116.16,206.35 116.77,207.82 114.92,188.01 C114.02,178.34 114.04,172.04 114.99,160.01 C115.67,151.48 116.64,143.71 117.15,142.75 C118.47,140.24 134.80,128.30 146.78,121.10 C161.04,112.53 171.81,107.73 175.25,108.41 C179.39,109.22 203.49,121.55 211.47,126.94 C225.26,136.24 229.43,138.71 231.05,142.32 C231.95,144.33 232.06,146.69 232.61,150.77 C234.20,162.72 234.23,185.42 232.66,197.50 L 231.50 206.50 L 222.58 213.20 C211.39,221.60 200.60,228.20 186.47,235.27 L 175.44 240.79 ZM 186.26 204.47 C193.96,201.34 200.40,195.29 203.81,188.00 C207.31,180.50 207.45,167.96 204.12,160.50 C201.53,154.72 195.07,147.65 189.95,145.00 C181.37,140.56 167.82,140.50 159.29,144.85 C153.54,147.78 147.03,154.75 144.20,161.00 C142.25,165.32 141.71,168.13 141.72,174.05 C141.74,189.02 149.82,200.13 164.30,205.14 C171.74,207.71 178.82,207.49 186.26,204.47 ZM 75.87 164.34 C74.93,163.14 73.74,161.65 72.50,160.12 C69.00,155.42 67.00,152.08 67.00,150.84 C67.00,149.92 66.63,149.02 66.17,148.83 C65.03,148.38 60.00,137.16 60.00,135.08 C60.00,134.16 60.56,132.77 61.25,132.00 C62.30,130.82 62.20,130.82 60.64,132.01 C59.01,133.26 58.62,133.20 57.39,131.52 C55.46,128.87 55.62,128.29 58.71,126.80 C61.53,125.45 62.73,122.72 62.90,117.30 C62.98,114.87 64.57,112.32 69.56,106.62 C73.17,102.50 75.98,98.52 75.81,97.77 C75.64,97.03 77.12,94.75 79.09,92.72 L 82.68 89.02 L 86.45 90.85 C89.88,92.52 90.74,92.56 96.14,91.31 C101.25,90.13 103.27,90.15 110.78,91.46 C119.96,93.06 122.55,94.74 121.63,98.50 C121.54,98.84 121.31,99.75 120.97,101.06 C118.41,109.47 114.09,127.52 113.38,132.99 C112.62,138.93 112.65,138.89 99.01,151.50 C95.44,154.80 90.58,159.86 88.22,162.74 C85.47,166.07 83.74,168.02 82.34,168.76 C80.32,169.76 78.89,168.19 75.87,164.34 ZM 267.53 179.34 C268.30,178.77 268.77,178.50 268.88,178.63 C269.02,178.80 269.42,179.28 269.99,179.97 C269.99,180.03 270.00,180.10 270.00,180.16 C270.00,180.73 272.78,184.87 276.17,189.35 C279.56,193.83 283.20,199.75 284.26,202.50 C285.31,205.25 286.52,207.95 286.95,208.50 C287.37,209.05 288.42,211.61 289.28,214.19 C290.81,218.78 290.79,218.91 288.56,220.37 C286.89,221.46 286.13,223.14 285.74,226.58 C285.33,230.22 284.47,231.99 281.97,234.32 C280.19,235.99 277.92,239.19 276.92,241.43 C275.92,243.67 274.02,246.96 272.69,248.76 C271.18,250.80 270.45,252.89 270.73,254.36 C271.00,255.78 270.65,256.88 269.84,257.14 C269.10,257.37 259.32,257.22 248.10,256.82 C237.56,256.45 229.45,255.83 227.22,255.27 C226.88,255.14 226.65,255.03 226.54,254.92 C226.54,254.92 226.53,254.92 226.53,254.91 C226.41,254.74 226.32,254.51 226.26,254.22 C226.10,253.08 226.48,250.82 227.36,247.74 C228.34,244.31 230.21,237.00 231.52,231.50 C232.83,226.00 234.37,219.58 234.95,217.24 C235.53,214.89 236.00,212.23 236.00,211.32 C236.00,210.29 243.53,202.27 251.38,194.44 C257.87,187.96 264.60,181.60 267.53,179.34 ZM 112.87 213.55 C112.90,213.69 112.93,213.85 112.96,214.00 C113.36,216.02 113.88,218.44 114.47,221.06 C116.25,229.46 119.38,241.73 121.71,249.32 C122.68,252.48 119.98,255.82 115.10,257.48 C108.78,259.65 97.81,260.15 89.93,258.65 C79.27,256.61 77.72,255.63 74.17,248.70 C72.43,245.29 69.61,239.01 67.91,234.75 C66.21,230.49 64.44,227.00 63.98,227.00 C62.18,227.00 60.00,223.72 60.00,221.01 C60.00,219.45 59.44,217.93 58.75,217.65 C57.83,217.26 57.95,216.76 59.19,215.75 C60.12,214.99 61.04,213.22 61.22,211.81 C61.41,210.41 62.79,207.65 64.28,205.70 C65.78,203.74 67.00,201.54 67.00,200.82 C67.00,199.52 75.09,186.66 78.67,182.26 L 80.50 180.02 L 91.37 191.01 C97.35,197.05 102.75,202.01 103.37,202.03 C103.68,202.03 104.37,202.43 105.24,203.05 C105.66,203.41 106.03,203.73 106.36,204.00 C107.41,204.85 108.26,205.57 108.97,206.22 C111.04,208.24 111.89,209.63 112.87,213.55 ZM 164.50 98.79 C160.10,97.17 150.88,94.37 144.00,92.59 C136.44,90.63 133.16,90.03 132.26,88.23 C132.07,87.84 131.99,87.40 132.00,86.87 C132.89,81.77 137.49,71.05 140.08,69.45 C140.59,69.14 141.00,67.96 141.00,66.84 C141.00,65.71 142.01,63.54 143.25,62.02 C144.49,60.50 146.33,57.74 147.34,55.88 L 149.19 52.51 L 151.00 54.76 C152.00,55.99 153.09,57.00 153.41,57.00 C153.73,57.00 154.00,54.49 154.00,51.43 C154.00,46.66 154.25,45.90 155.75,46.19 C156.82,46.39 157.63,47.61 157.82,49.32 C158.20,52.60 160.84,54.05 162.15,51.69 C162.89,50.37 164.18,50.19 169.30,50.66 C174.34,51.13 175.81,50.93 176.90,49.62 C178.58,47.59 180.69,47.55 182.65,49.50 C183.71,50.56 185.84,50.93 189.87,50.75 C196.37,50.47 201.00,52.68 201.00,56.08 C201.00,57.20 201.45,57.84 202.00,57.50 C202.55,57.16 203.00,57.88 203.00,59.11 C203.00,60.34 203.73,62.15 204.62,63.14 C206.35,65.05 211.75,74.66 215.14,81.87 C215.50,82.62 215.79,83.28 216.01,83.86 C216.63,86.01 216.39,87.19 214.75,88.21 C213.30,89.05 210.83,89.84 207.00,90.96 C193.06,95.02 187.52,96.83 181.06,99.42 C177.52,100.84 174.14,101.95 173.56,101.88 C172.98,101.81 168.90,100.42 164.50,98.79 ZM 234.34 128.09 C233.66,124.98 232.88,121.56 232.12,118.34 C232.06,118.06 232.00,117.78 231.94,117.50 C230.72,112.00 229.34,106.60 228.88,105.50 C228.42,104.40 227.63,101.70 227.13,99.50 C226.65,97.35 225.98,94.93 225.63,94.05 C225.60,93.99 225.58,93.92 225.55,93.87 C225.33,93.19 225.61,92.59 226.51,92.02 C228.45,91.48 233.08,90.92 243.50,89.64 C255.05,88.21 255.58,88.23 257.56,90.08 C258.70,91.14 260.21,92.00 260.92,92.00 C263.22,92.00 271.78,98.14 274.70,101.88 C276.26,103.87 278.65,107.97 280.02,110.98 C281.38,113.99 283.29,117.25 284.25,118.23 C285.21,119.20 286.00,120.45 286.00,121.00 C286.00,121.55 286.90,122.00 288.00,122.00 C290.42,122.00 290.46,122.37 288.38,125.54 C286.78,127.98 286.80,128.00 289.96,128.00 C292.85,128.00 293.00,128.14 291.57,129.57 C290.71,130.44 290.00,131.50 290.00,131.93 C290.00,132.37 288.65,134.42 287.00,136.50 C285.35,138.58 284.00,141.19 284.00,142.32 C284.00,144.29 276.09,156.83 270.10,164.37 L 267.21 168.01 L 262.29 162.63 C259.58,159.67 252.68,153.05 246.94,147.92 C245.02,146.20 243.20,144.51 241.62,142.99 C238.62,139.69 236.56,137.25 236.10,136.40 C236.06,136.22 236.02,136.02 235.98,135.82 C235.90,134.85 235.52,132.87 235.07,131.12 C234.91,130.48 234.66,129.42 234.34,128.09 ZM 135.00 270.48 C135.00,270.46 135.00,270.44 135.00,270.43 C135.00,269.77 134.33,267.94 133.51,266.36 C132.02,263.51 131.54,262.03 132.88,260.85 C133.94,259.93 136.10,259.18 139.75,258.12 C149.65,255.22 162.99,250.81 169.86,248.16 L 175.16 246.12 L 177.67 246.93 L 188.36 250.61 C196.77,253.50 202.16,255.19 206.74,256.28 C208.95,256.98 210.69,257.52 211.66,257.81 C216.59,259.28 216.78,259.47 215.88,261.93 C214.89,264.65 212.58,269.76 210.35,274.15 C209.61,275.61 209.00,277.53 209.00,278.41 C209.00,279.30 207.60,281.48 205.89,283.26 C204.18,285.04 202.38,287.40 201.89,288.50 C201.40,289.60 200.55,291.29 200.00,292.25 C199.45,293.21 198.61,294.79 198.14,295.75 C197.67,296.71 196.53,297.65 195.60,297.83 C194.25,298.10 194.05,297.65 194.57,295.58 C195.11,293.42 194.88,293.00 193.11,293.00 C191.51,293.00 191.00,293.62 191.00,295.56 C191.00,297.04 190.57,297.85 189.98,297.49 C188.63,296.65 172.33,296.68 166.71,297.52 C162.61,298.14 162.05,297.94 159.26,294.96 C155.99,291.46 154.00,291.69 154.00,295.56 C154.00,298.24 153.57,298.38 150.25,296.78 C148.83,296.09 148.00,294.80 148.00,293.25 C148.00,291.86 146.78,289.66 145.17,288.15 C143.62,286.69 141.49,283.25 140.46,280.50 C139.42,277.75 137.76,274.63 136.78,273.56 C136.06,272.78 135.44,271.81 135.16,271.09 C135.11,270.89 135.06,270.69 135.00,270.48 ZM 127.78 250.75 C126.83,248.41 125.33,243.80 124.44,240.50 C123.55,237.20 122.38,232.93 121.84,231.00 C120.01,224.48 119.05,217.55 119.86,216.74 C120.31,216.29 125.68,219.28 131.81,223.37 C137.44,227.14 146.80,232.65 153.52,236.19 C154.07,236.48 154.61,236.76 155.11,237.02 L 167.47 243.32 L 162.99 245.28 C160.52,246.35 157.15,247.59 155.50,248.03 C153.85,248.47 147.78,250.22 142.00,251.92 C136.23,253.61 131.05,255.00 130.50,255.00 C129.95,254.99 128.73,253.08 127.78,250.75 ZM 224.50 129.66 C218.28,124.85 199.73,113.82 191.03,109.74 C186.07,107.42 182.00,105.21 182.00,104.83 C182.00,103.92 192.54,100.00 194.98,100.00 C196.03,100.00 197.13,99.60 197.43,99.12 C197.73,98.63 199.22,98.00 200.74,97.73 C202.26,97.45 206.11,96.50 209.30,95.61 C217.65,93.29 219.57,93.48 220.74,96.75 C223.21,103.61 226.83,117.20 229.55,129.75 C230.18,132.68 228.36,132.64 224.50,129.66 ZM 205.50 250.62 C201.45,249.53 197.34,248.35 193.70,247.25 C187.33,245.27 184.00,243.83 184.00,243.03 C184.00,242.59 185.69,241.44 187.75,240.49 C190.43,239.25 193.67,237.56 197.11,235.64 C204.30,231.72 213.48,226.02 219.61,221.51 C224.46,217.93 228.82,215.00 229.30,215.00 C230.37,215.00 229.81,217.90 225.33,235.50 C221.98,248.70 219.90,254.09 218.23,253.93 C217.83,253.89 212.10,252.40 205.50,250.62 ZM 147.63 98.87 C152.63,100.30 157.58,101.80 161.08,102.97 C162.50,103.67 163.50,104.49 163.50,105.04 C163.50,105.76 159.42,108.52 154.36,111.24 C152.12,112.41 149.80,113.67 147.46,115.00 C142.20,117.95 138.07,120.56 131.20,125.13 C128.83,126.71 126.53,128.00 126.07,128.00 C125.62,128.00 124.68,128.68 124.00,129.50 C122.72,131.04 120.79,131.45 119.74,130.41 C119.51,130.18 119.43,129.13 119.52,127.82 C119.81,127.20 120.00,126.27 120.00,125.36 C120.00,124.84 120.44,122.84 121.11,120.08 C123.49,110.79 128.00,94.69 128.49,94.19 L 128.49 94.19 L 128.49 94.19 C128.74,93.95 138.83,96.48 147.63,98.87 ZM 238.35 148.14 L 242.42 150.96 C246.83,154.00 263.50,171.46 263.50,173.04 C263.50,174.58 250.06,189.65 243.94,194.97 L 238.35 199.84 ZM 97.05 188.26 C90.42,181.67 85.00,175.77 85.00,175.14 C85.00,173.82 100.44,156.49 105.12,152.55 C106.84,151.10 108.65,150.05 109.13,150.21 C110.08,150.53 110.62,198.71 109.68,199.65 C109.37,199.97 103.68,194.84 97.05,188.26 ZM 264.72 91.39 C263.53,90.20 266.11,88.00 268.70,88.00 C270.49,88.00 271.06,88.47 270.81,89.75 C270.48,91.53 266.05,92.72 264.72,91.39 ZM 267.60 27.52 C267.48,27.44 267.35,27.36 267.23,27.28 C267.35,27.35 267.48,27.43 267.60,27.52 Z" fill="rgb(188,6,2)"/>
<path d="M 0.10 267.25 L 0.20 186.50 L 2.04 199.00 C7.72,237.58 25.44,271.93 53.63,299.02 C82.81,327.05 117.53,342.97 159.00,347.31 C160.93,347.51 125.94,347.75 81.25,347.84 L 0.00 348.00 L 0.10 267.25 ZM 190.00 347.31 C253.99,340.61 307.93,301.61 333.28,243.74 C340.51,227.22 344.63,211.31 347.33,189.50 C347.53,187.85 347.77,222.84 347.85,267.25 L 348.00 348.00 L 267.25 347.84 C222.84,347.75 188.07,347.51 190.00,347.31 ZM 0.10 80.75 L 0.00 0.00 L 80.75 0.09 L 161.50 0.18 L 149.15 2.05 C109.93,7.98 76.12,25.39 48.98,53.63 C23.15,80.52 7.42,112.48 2.04,149.00 L 0.20 161.50 L 0.10 80.75 ZM 347.00 157.17 C347.00,150.61 343.21,131.97 339.63,120.95 C317.87,53.93 260.26,7.93 189.00,0.68 C187.07,0.48 222.06,0.25 266.75,0.16 L 348.00 0.00 L 348.00 80.50 C348.00,124.78 347.77,161.00 347.50,161.00 C347.23,161.00 347.00,159.28 347.00,157.17 Z" fill="rgb(245,245,245)"/>
</g>
</svg>